# xmcd CD database file
#
# Track frame offsets:
#	150
#	12665
#	24585
#	34803
#	45978
#	56039
#	66151
#	77742
#	89666
#	100730
#	110006
#	119428
#	130306
#	141406
#	153975
#	168402
#	179630
#	189690
#	200455
#	213482
#
# Disc length: 2983 seconds
#
# Revision: 1
# Processed by: cddbd v1.5.2PL0 Copyright (c) Steve Scherf et al.
# Submitted via: CDex 2.23
#
DISCID=2a0ba514
DTITLE=Patsy Cline - Simply Patsy Cline [CD 1)
DYEAR=1900
DGENRE=Country
TTITLE0=Crazy
TTITLE1=A Poor Man's Roses
TTITLE2=Three Cigarettes In A Ashtray
TTITLE3=A Stranger In My Arms
TTITLE4=Foolin' Around
TTITLE5=Strange
TTITLE6=Let The Teardrops Fall
TTITLE7=Today, Tomorrow And Forever
TTITLE8=Stop The World (And Let Me Off)
TTITLE9=I Love You, Honey
TTITLE10=Come On In (And Make Yourself At Home)
TTITLE11=Stop, Look And Listen
TTITLE12=South Of The Border
TTITLE13=Fingerprints
TTITLE14=Than You'll Know
TTITLE15=Hungry For Love
TTITLE16=Have You Ever Been Lonely?
TTITLE17=I Don't Wanna
TTITLE18=If I Could See The World (Through The Eyes Of A Child)
TTITLE19=Who Can I Count On?
EXTD=
EXTT0=
EXTT1=
EXTT2=
EXTT3=
EXTT4=
EXTT5=
EXTT6=
EXTT7=
EXTT8=
EXTT9=
EXTT10=
EXTT11=
EXTT12=
EXTT13=
EXTT14=
EXTT15=
EXTT16=
EXTT17=
EXTT18=
EXTT19=
PLAYORDER=
